{
	"asset":{
		"generator":"Khronos glTF Blender I/O v5.1.18",
		"version":"2.0"
	},
	"scene":0,
	"scenes":[
		{
			"name":"Scene",
			"nodes":[
				4,
				5
			]
		}
	],
	"nodes":[
		{
			"mesh":0,
			"name":"Model_0"
		},
		{
			"mesh":1,
			"name":"Model_1"
		},
		{
			"children":[
				0,
				1
			],
			"name":"Model"
		},
		{
			"children":[
				2
			],
			"name":"Root"
		},
		{
			"children":[
				3
			],
			"name":"Sketchfab_model",
			"rotation":[
				-0.70710688829422,
				0,
				0,
				0.7071066498756409
			],
			"scale":[
				1.7487810850143433,
				1,
				1.1747534275054932
			]
		},
		{
			"mesh":2,
			"name":"Cube",
			"rotation":[
				-0.07322966307401657,
				0,
				0,
				0.9973151087760925
			],
			"scale":[
				0.7978224754333496,
				0.8404856324195862,
				0.012947002425789833
			],
			"translation":[
				-0.0006695389747619629,
				0.9616103768348694,
				0.05904374271631241
			]
		}
	],
	"materials":[
		{
			"doubleSided":true,
			"name":"Frame",
			"pbrMetallicRoughness":{
				"baseColorFactor":[
					0.3080824017524719,
					0.06918323040008545,
					0.008558941073715687,
					1
				],
				"metallicFactor":0,
				"roughnessFactor":0.6000000238418579
			}
		},
		{
			"name":"Inner_Stuff",
			"pbrMetallicRoughness":{
				"baseColorFactor":[
					0.8000000715255737,
					0.7127275466918945,
					0.64754319190979,
					1
				],
				"metallicFactor":0,
				"roughnessFactor":0.6000000238418579
			}
		},
		{
			"doubleSided":true,
			"name":"Material.001",
			"pbrMetallicRoughness":{
				"baseColorTexture":{
					"index":0
				},
				"metallicFactor":0,
				"roughnessFactor":0.5
			}
		}
	],
	"meshes":[
		{
			"name":"Model_0",
			"primitives":[
				{
					"attributes":{
						"POSITION":0,
						"NORMAL":1,
						"TEXCOORD_0":2
					},
					"indices":3,
					"material":0
				}
			]
		},
		{
			"name":"Model_1",
			"primitives":[
				{
					"attributes":{
						"POSITION":4,
						"NORMAL":5,
						"TEXCOORD_0":6
					},
					"indices":7,
					"material":1
				}
			]
		},
		{
			"name":"Cube.001",
			"primitives":[
				{
					"attributes":{
						"POSITION":8,
						"NORMAL":9,
						"TEXCOORD_0":10
					},
					"indices":11,
					"material":2
				}
			]
		}
	],
	"textures":[
		{
			"sampler":0,
			"source":0
		}
	],
	"images":[
		{
			"mimeType":"image/jpeg",
			"name":"ryan",
			"uri":"ryan.jpg"
		}
	],
	"accessors":[
		{
			"bufferView":0,
			"componentType":5126,
			"count":134,
			"max":[
				0.5,
				0.4291200041770935,
				1.6126799583435059
			],
			"min":[
				-0.5,
				-0.1951099932193756,
				0.0019000000320374966
			],
			"type":"VEC3"
		},
		{
			"bufferView":1,
			"componentType":5126,
			"count":134,
			"type":"VEC3"
		},
		{
			"bufferView":2,
			"componentType":5126,
			"count":134,
			"type":"VEC2"
		},
		{
			"bufferView":3,
			"componentType":5123,
			"count":174,
			"type":"SCALAR"
		},
		{
			"bufferView":4,
			"componentType":5126,
			"count":20,
			"max":[
				0.44999998807907104,
				0.12620000541210175,
				1.5243300199508667
			],
			"min":[
				-0.44999998807907104,
				-0.17246000468730927,
				0.09025000035762787
			],
			"type":"VEC3"
		},
		{
			"bufferView":5,
			"componentType":5126,
			"count":20,
			"type":"VEC3"
		},
		{
			"bufferView":6,
			"componentType":5126,
			"count":20,
			"type":"VEC2"
		},
		{
			"bufferView":7,
			"componentType":5123,
			"count":30,
			"type":"SCALAR"
		},
		{
			"bufferView":8,
			"componentType":5126,
			"count":24,
			"max":[
				1,
				1,
				1
			],
			"min":[
				-1,
				-1,
				-1
			],
			"type":"VEC3"
		},
		{
			"bufferView":9,
			"componentType":5126,
			"count":24,
			"type":"VEC3"
		},
		{
			"bufferView":10,
			"componentType":5126,
			"count":24,
			"type":"VEC2"
		},
		{
			"bufferView":11,
			"componentType":5123,
			"count":36,
			"type":"SCALAR"
		}
	],
	"bufferViews":[
		{
			"buffer":0,
			"byteLength":1608,
			"byteOffset":0,
			"target":34962
		},
		{
			"buffer":0,
			"byteLength":1608,
			"byteOffset":1608,
			"target":34962
		},
		{
			"buffer":0,
			"byteLength":1072,
			"byteOffset":3216,
			"target":34962
		},
		{
			"buffer":0,
			"byteLength":348,
			"byteOffset":4288,
			"target":34963
		},
		{
			"buffer":0,
			"byteLength":240,
			"byteOffset":4636,
			"target":34962
		},
		{
			"buffer":0,
			"byteLength":240,
			"byteOffset":4876,
			"target":34962
		},
		{
			"buffer":0,
			"byteLength":160,
			"byteOffset":5116,
			"target":34962
		},
		{
			"buffer":0,
			"byteLength":60,
			"byteOffset":5276,
			"target":34963
		},
		{
			"buffer":0,
			"byteLength":288,
			"byteOffset":5336,
			"target":34962
		},
		{
			"buffer":0,
			"byteLength":288,
			"byteOffset":5624,
			"target":34962
		},
		{
			"buffer":0,
			"byteLength":192,
			"byteOffset":5912,
			"target":34962
		},
		{
			"buffer":0,
			"byteLength":72,
			"byteOffset":6104,
			"target":34963
		}
	],
	"samplers":[
		{
			"magFilter":9729,
			"minFilter":9987
		}
	],
	"buffers":[
		{
			"byteLength":6176,
			"uri":"ryan.bin"
		}
	]
}
